<svg width="65" height="535" viewBox="0 0 65 535" fill="none" xmlns="http://www.w3.org/2000/svg">
<g opacity="0.3">
<mask id="path-1-outside-1" maskUnits="userSpaceOnUse" x="-2.33419e-05" y="-2.79753e-06" width="65" height="535" fill="black">
<rect fill="white" x="-2.33419e-05" y="-2.79753e-06" width="65" height="535"/>
<path d="M2.01249 534L2.01249 512.755L24.625 512.755L24.625 490.836L2.01249 490.836L2.01249 469.479L62.9875 469.479L62.9875 490.836L41.6125 490.836L41.6125 512.755L62.9875 512.755L62.9875 534L2.01249 534Z"/>
<path d="M64 424.827C64 431.347 62.65 437.229 59.95 442.475C57.25 447.721 53.5 451.842 48.7 454.84C43.9 457.762 38.4625 459.224 32.3875 459.224C26.3875 459.224 20.9875 457.762 16.1875 454.84C11.3875 451.842 7.675 447.758 5.04999 442.587C2.35 437.342 0.999996 431.422 0.999995 424.827C0.999995 418.233 2.35 412.313 5.04999 407.067C7.675 401.821 11.3875 397.737 16.1875 394.815C20.9125 391.892 26.3125 390.431 32.3875 390.431C38.4625 390.431 43.9 391.892 48.7 394.815C53.5 397.737 57.25 401.821 59.95 407.067C62.65 412.313 64 418.233 64 424.827ZM47.0125 424.827C47.0125 421.08 45.7375 418.008 43.1875 415.61C40.5625 413.212 36.9625 412.013 32.3875 412.013C27.8875 412.013 24.3625 413.212 21.8125 415.61C19.2625 418.008 17.9875 421.08 17.9875 424.827C17.9875 428.574 19.2625 431.647 21.8125 434.045C24.3625 436.443 27.8875 437.642 32.3875 437.642C36.9625 437.642 40.5625 436.443 43.1875 434.045C45.7375 431.647 47.0125 428.574 47.0125 424.827Z"/>
<path d="M31.0375 331.058C33.3625 324.089 38.1625 320.605 45.4375 320.605C50.9125 320.605 55.225 322.74 58.375 327.012C61.45 331.283 62.9875 337.578 62.9875 345.896L62.9875 380.18L2.01249 380.18L2.01249 347.47C2.01249 339.526 3.39999 333.382 6.17499 329.035C8.94999 324.614 12.85 322.403 17.875 322.403C20.8 322.403 23.3875 323.153 25.6375 324.651C27.8875 326.15 29.6875 328.286 31.0375 331.058ZM26.5375 361.071L26.5375 349.381C26.5375 344.435 24.7 341.962 21.025 341.962C17.5 341.962 15.7375 344.435 15.7375 349.381L15.7375 361.071L26.5375 361.071ZM49.15 347.807C49.15 342.636 47.275 340.051 43.525 340.051C39.775 340.051 37.9 342.561 37.9 347.582L37.9 361.071L49.15 361.071L49.15 347.807Z"/>
<path d="M64 279.57C64 286.089 62.65 291.972 59.95 297.217C57.25 302.463 53.5 306.585 48.7 309.582C43.9 312.505 38.4625 313.966 32.3875 313.966C26.3875 313.966 20.9875 312.505 16.1875 309.582C11.3875 306.585 7.67499 302.5 5.04999 297.33C2.34999 292.084 0.999989 286.164 0.999989 279.57C0.999989 272.975 2.34999 267.055 5.04999 261.809C7.67499 256.564 11.3875 252.48 16.1875 249.557C20.9125 246.634 26.3125 245.173 32.3875 245.173C38.4625 245.173 43.9 246.634 48.7 249.557C53.5 252.48 57.25 256.564 59.95 261.809C62.65 267.055 64 272.975 64 279.57ZM47.0125 279.57C47.0125 275.823 45.7375 272.75 43.1875 270.352C40.5625 267.954 36.9625 266.755 32.3875 266.755C27.8875 266.755 24.3625 267.954 21.8125 270.352C19.2625 272.75 17.9875 275.823 17.9875 279.57C17.9875 283.316 19.2625 286.389 21.8125 288.787C24.3625 291.185 27.8875 292.384 32.3875 292.384C36.9625 292.384 40.5625 291.185 43.1875 288.787C45.7375 286.389 47.0125 283.316 47.0125 279.57Z"/>
<path d="M64 204.348C64 211.092 62.65 217.125 59.95 222.445C57.25 227.766 53.5 231.925 48.7 234.922C43.9 237.845 38.4625 239.306 32.3875 239.306C26.3125 239.306 20.9125 237.845 16.1875 234.922C11.3875 231.925 7.67499 227.766 5.04999 222.445C2.34999 217.125 0.999986 211.092 0.999986 204.348C0.999985 197.454 2.49998 191.496 5.49998 186.475C8.42498 181.454 12.5125 177.895 17.7625 175.797L26.2 192.32C20.725 195.093 17.9875 199.14 17.9875 204.46C17.9875 208.282 19.2625 211.467 21.8125 214.015C24.3625 216.488 27.8875 217.724 32.3875 217.724C36.9625 217.724 40.5625 216.488 43.1875 214.015C45.7375 211.467 47.0125 208.282 47.0125 204.46C47.0125 199.14 44.275 195.093 38.8 192.32L47.2375 175.797C52.4875 177.895 56.6125 181.454 59.6125 186.475C62.5375 191.496 64 197.454 64 204.348Z"/>
<path d="M19 112.005L19 131.564L62.9875 131.564L62.9875 152.809L19 152.809L19 172.48L2.01248 172.48L2.01248 112.005L19 112.005Z"/>
<path d="M2.01248 103.496L2.01247 82.2512L33.9625 82.2512L2.01247 56.7349L2.01247 37.0638L62.9875 37.0638L62.9875 58.421L30.925 58.421L62.9875 83.7125L62.9875 103.496L2.01248 103.496Z"/>
<path d="M64 13.8143C64 17.4113 62.8 20.4463 60.4 22.9192C58 25.3922 54.9625 26.6287 51.2875 26.6287C47.5375 26.6287 44.5 25.4297 42.175 23.0317C39.85 20.5587 38.6875 17.4863 38.6875 13.8143C38.6875 10.0674 39.85 6.99499 42.175 4.59698C44.5 2.19897 47.5375 0.999998 51.2875 0.999998C54.9625 0.999998 58 2.23645 60.4 4.70941C62.8 7.10742 64 10.1424 64 13.8143Z"/>
</mask>
<path d="M2.01249 534L2.01249 512.755L24.625 512.755L24.625 490.836L2.01249 490.836L2.01249 469.479L62.9875 469.479L62.9875 490.836L41.6125 490.836L41.6125 512.755L62.9875 512.755L62.9875 534L2.01249 534Z" stroke="#748CEE" stroke-width="2" mask="url(#path-1-outside-1)"/>
<path d="M64 424.827C64 431.347 62.65 437.229 59.95 442.475C57.25 447.721 53.5 451.842 48.7 454.84C43.9 457.762 38.4625 459.224 32.3875 459.224C26.3875 459.224 20.9875 457.762 16.1875 454.84C11.3875 451.842 7.675 447.758 5.04999 442.587C2.35 437.342 0.999996 431.422 0.999995 424.827C0.999995 418.233 2.35 412.313 5.04999 407.067C7.675 401.821 11.3875 397.737 16.1875 394.815C20.9125 391.892 26.3125 390.431 32.3875 390.431C38.4625 390.431 43.9 391.892 48.7 394.815C53.5 397.737 57.25 401.821 59.95 407.067C62.65 412.313 64 418.233 64 424.827ZM47.0125 424.827C47.0125 421.08 45.7375 418.008 43.1875 415.61C40.5625 413.212 36.9625 412.013 32.3875 412.013C27.8875 412.013 24.3625 413.212 21.8125 415.61C19.2625 418.008 17.9875 421.08 17.9875 424.827C17.9875 428.574 19.2625 431.647 21.8125 434.045C24.3625 436.443 27.8875 437.642 32.3875 437.642C36.9625 437.642 40.5625 436.443 43.1875 434.045C45.7375 431.647 47.0125 428.574 47.0125 424.827Z" stroke="#748CEE" stroke-width="2" mask="url(#path-1-outside-1)"/>
<path d="M31.0375 331.058C33.3625 324.089 38.1625 320.605 45.4375 320.605C50.9125 320.605 55.225 322.74 58.375 327.012C61.45 331.283 62.9875 337.578 62.9875 345.896L62.9875 380.18L2.01249 380.18L2.01249 347.47C2.01249 339.526 3.39999 333.382 6.17499 329.035C8.94999 324.614 12.85 322.403 17.875 322.403C20.8 322.403 23.3875 323.153 25.6375 324.651C27.8875 326.15 29.6875 328.286 31.0375 331.058ZM26.5375 361.071L26.5375 349.381C26.5375 344.435 24.7 341.962 21.025 341.962C17.5 341.962 15.7375 344.435 15.7375 349.381L15.7375 361.071L26.5375 361.071ZM49.15 347.807C49.15 342.636 47.275 340.051 43.525 340.051C39.775 340.051 37.9 342.561 37.9 347.582L37.9 361.071L49.15 361.071L49.15 347.807Z" stroke="#748CEE" stroke-width="2" mask="url(#path-1-outside-1)"/>
<path d="M64 279.57C64 286.089 62.65 291.972 59.95 297.217C57.25 302.463 53.5 306.585 48.7 309.582C43.9 312.505 38.4625 313.966 32.3875 313.966C26.3875 313.966 20.9875 312.505 16.1875 309.582C11.3875 306.585 7.67499 302.5 5.04999 297.33C2.34999 292.084 0.999989 286.164 0.999989 279.57C0.999989 272.975 2.34999 267.055 5.04999 261.809C7.67499 256.564 11.3875 252.48 16.1875 249.557C20.9125 246.634 26.3125 245.173 32.3875 245.173C38.4625 245.173 43.9 246.634 48.7 249.557C53.5 252.48 57.25 256.564 59.95 261.809C62.65 267.055 64 272.975 64 279.57ZM47.0125 279.57C47.0125 275.823 45.7375 272.75 43.1875 270.352C40.5625 267.954 36.9625 266.755 32.3875 266.755C27.8875 266.755 24.3625 267.954 21.8125 270.352C19.2625 272.75 17.9875 275.823 17.9875 279.57C17.9875 283.316 19.2625 286.389 21.8125 288.787C24.3625 291.185 27.8875 292.384 32.3875 292.384C36.9625 292.384 40.5625 291.185 43.1875 288.787C45.7375 286.389 47.0125 283.316 47.0125 279.57Z" stroke="#748CEE" stroke-width="2" mask="url(#path-1-outside-1)"/>
<path d="M64 204.348C64 211.092 62.65 217.125 59.95 222.445C57.25 227.766 53.5 231.925 48.7 234.922C43.9 237.845 38.4625 239.306 32.3875 239.306C26.3125 239.306 20.9125 237.845 16.1875 234.922C11.3875 231.925 7.67499 227.766 5.04999 222.445C2.34999 217.125 0.999986 211.092 0.999986 204.348C0.999985 197.454 2.49998 191.496 5.49998 186.475C8.42498 181.454 12.5125 177.895 17.7625 175.797L26.2 192.32C20.725 195.093 17.9875 199.14 17.9875 204.46C17.9875 208.282 19.2625 211.467 21.8125 214.015C24.3625 216.488 27.8875 217.724 32.3875 217.724C36.9625 217.724 40.5625 216.488 43.1875 214.015C45.7375 211.467 47.0125 208.282 47.0125 204.46C47.0125 199.14 44.275 195.093 38.8 192.32L47.2375 175.797C52.4875 177.895 56.6125 181.454 59.6125 186.475C62.5375 191.496 64 197.454 64 204.348Z" stroke="#748CEE" stroke-width="2" mask="url(#path-1-outside-1)"/>
<path d="M19 112.005L19 131.564L62.9875 131.564L62.9875 152.809L19 152.809L19 172.48L2.01248 172.48L2.01248 112.005L19 112.005Z" stroke="#748CEE" stroke-width="2" mask="url(#path-1-outside-1)"/>
<path d="M2.01248 103.496L2.01247 82.2512L33.9625 82.2512L2.01247 56.7349L2.01247 37.0638L62.9875 37.0638L62.9875 58.421L30.925 58.421L62.9875 83.7125L62.9875 103.496L2.01248 103.496Z" stroke="#748CEE" stroke-width="2" mask="url(#path-1-outside-1)"/>
<path d="M64 13.8143C64 17.4113 62.8 20.4463 60.4 22.9192C58 25.3922 54.9625 26.6287 51.2875 26.6287C47.5375 26.6287 44.5 25.4297 42.175 23.0317C39.85 20.5587 38.6875 17.4863 38.6875 13.8143C38.6875 10.0674 39.85 6.99499 42.175 4.59698C44.5 2.19897 47.5375 0.999998 51.2875 0.999998C54.9625 0.999998 58 2.23645 60.4 4.70941C62.8 7.10742 64 10.1424 64 13.8143Z" stroke="#748CEE" stroke-width="2" mask="url(#path-1-outside-1)"/>
</g>
</svg>
