<svg width="143" height="175" viewBox="0 0 143 175" fill="none" xmlns="http://www.w3.org/2000/svg">
<path fill-rule="evenodd" clip-rule="evenodd" d="M4.60836 156.988L4.60513 156.982C1.53135 151.25 -1.31746e-06 144.86 -1.62495e-06 137.825C-1.93238e-06 130.792 1.53078 124.466 4.60681 118.862C7.68762 113.119 12.1776 108.643 18.0602 105.443C23.9504 102.238 30.9528 100.651 39.0422 100.651C51.1118 100.651 60.6788 104.095 67.6553 111.053C74.6181 117.997 78.0844 126.942 78.0844 137.825C78.0844 148.709 74.6181 157.653 67.6553 164.598C60.6788 171.556 51.1118 175 39.0422 175C30.9529 175 23.9504 173.412 18.0602 170.208C12.1808 167.009 7.69046 162.601 4.60836 156.988ZM5.20745 119.186C2.19117 124.68 0.683032 130.893 0.683032 137.825C0.683033 144.758 2.19117 151.036 5.20745 156.661C8.22373 162.154 12.617 166.471 18.3873 169.61C24.1575 172.749 31.0425 174.319 39.0422 174.319C50.9762 174.319 60.3529 170.918 67.1723 164.116C73.9917 157.315 77.4014 148.551 77.4014 137.825C77.4014 127.1 73.9917 118.336 67.1723 111.535C60.3529 104.733 50.9762 101.332 39.0422 101.332C31.0425 101.332 24.1575 102.902 18.3873 106.041C12.617 109.18 8.22373 113.562 5.20745 119.186ZM1.96713 57.5467L1.96713 22.739L141.033 117.453L141.033 152.261L1.96713 57.5467ZM51.8625 132.322C49.275 130.725 45.0408 129.874 39.0422 129.874C33.0389 129.874 28.8807 130.727 26.4314 132.314L26.415 132.325L26.398 132.335C23.7894 133.821 22.6112 135.653 22.6112 137.825C22.6112 140.003 23.7961 141.904 26.4145 143.522C28.8705 144.99 33.0375 145.777 39.0422 145.777C45.0324 145.777 49.2708 144.994 51.8663 143.522C54.3402 141.913 55.4733 140.015 55.4733 137.825C55.4733 135.637 54.3422 133.806 51.8706 132.327L51.8625 132.322ZM52.2221 144.104C49.4681 145.673 45.0748 146.458 39.0422 146.458C33.0097 146.458 28.682 145.673 26.0591 144.104C23.3051 142.403 21.9281 140.311 21.9281 137.825C21.9281 135.34 23.3051 133.313 26.0591 131.743C28.682 130.043 33.0097 129.193 39.0422 129.193C45.0748 129.193 49.4681 130.043 52.2221 131.743C54.8449 133.313 56.1563 135.34 56.1563 137.825C56.1563 140.311 54.8449 142.403 52.2221 144.104ZM69.5239 56.337L69.5207 56.3311C66.4469 50.5994 64.9155 44.2091 64.9155 37.1745C64.9155 30.1414 66.4463 23.8147 69.5224 18.2111C72.6032 12.4677 77.0932 7.99231 82.9758 4.79199C88.8659 1.58755 95.8684 -4.19054e-06 103.958 -4.54414e-06C116.027 -5.07172e-06 125.594 3.44366 132.571 10.402C139.534 17.3466 143 26.291 143 37.1745C143 48.0581 139.534 57.0025 132.571 63.9471C125.594 70.9054 116.027 74.3491 103.958 74.3491C95.8684 74.3491 88.8659 72.7615 82.9758 69.5571C77.0963 66.3585 72.606 61.9505 69.5239 56.337ZM70.123 18.5355C67.1067 24.0291 65.5986 30.2421 65.5986 37.1745C65.5986 44.107 67.1067 50.3854 70.123 56.0098C73.1393 61.5034 77.5326 65.8198 83.3028 68.959C89.0731 72.0982 95.9581 73.6678 103.958 73.6678C115.892 73.6678 125.268 70.267 132.088 63.4654C138.907 56.6638 142.317 47.9002 142.317 37.1745C142.317 26.4489 138.907 17.6853 132.088 10.8837C125.268 4.08206 115.892 0.681239 103.958 0.681239C95.9581 0.68124 89.0731 2.25084 83.3028 5.39006C77.5326 8.52926 73.1393 12.9111 70.123 18.5355ZM91.3305 31.6741L91.3135 31.6838C88.705 33.1705 87.5267 35.0025 87.5267 37.1745C87.5267 39.3522 88.7116 41.2532 91.33 42.8711C93.786 44.3391 97.953 45.1261 103.958 45.1261C109.948 45.1261 114.186 44.3433 116.782 42.8711C119.256 41.2621 120.389 39.3645 120.389 37.1745C120.389 34.9858 119.258 33.1556 116.786 31.6765L116.778 31.6716C114.19 30.0739 109.956 29.223 103.958 29.223C97.9544 29.223 93.7962 30.0756 91.3469 31.6635L91.3305 31.6741ZM2.65016 57.187L2.65016 24.0291L140.35 117.813L140.35 150.971L2.65016 57.187ZM117.138 31.0923C119.76 32.6619 121.072 34.6893 121.072 37.1745C121.072 39.6598 119.76 41.7526 117.138 43.453C114.384 45.0226 109.99 45.8074 103.958 45.8074C97.9252 45.8074 93.5975 45.0226 90.9747 43.453C88.2207 41.7526 86.8437 39.6598 86.8437 37.1745C86.8437 34.6893 88.2207 32.6619 90.9747 31.0923C93.5975 29.3919 97.9252 28.5417 103.958 28.5417C109.99 28.5417 114.384 29.3919 117.138 31.0923Z" fill="#748CEE"/>
</svg>
