<svg width="219" height="1477" viewBox="0 0 219 1477" fill="none" xmlns="http://www.w3.org/2000/svg">
<g opacity="0.3">
<mask id="path-1-outside-1" maskUnits="userSpaceOnUse" x="-6.4518e-05" y="-9.52908e-06" width="219" height="1477" fill="black">
<rect fill="white" x="-6.4518e-05" y="-9.52908e-06" width="219" height="1477"/>
<path d="M47.3675 1346.13L173.024 1346.13L173.024 1389.96L82.375 1389.96L82.375 1432.17L173.024 1432.17L173.024 1476L47.3675 1476L47.3675 1346.13Z"/>
<path d="M175.11 1253.7C175.11 1267.15 172.328 1279.29 166.764 1290.11C161.2 1300.94 153.472 1309.44 143.58 1315.62C133.688 1321.65 122.483 1324.67 109.964 1324.67C97.599 1324.67 86.4708 1321.65 76.5791 1315.62C66.6873 1309.44 59.0367 1301.01 53.6271 1290.35C48.063 1279.52 45.281 1267.31 45.281 1253.7C45.281 1240.1 48.063 1227.88 53.6271 1217.06C59.0367 1206.24 66.6873 1197.81 76.5791 1191.78C86.3163 1185.75 97.4445 1182.74 109.964 1182.74C122.483 1182.74 133.688 1185.75 143.58 1191.78C153.472 1197.81 161.2 1206.24 166.764 1217.06C172.328 1227.88 175.11 1240.1 175.11 1253.7ZM140.103 1253.7C140.103 1245.97 137.475 1239.63 132.22 1234.69C126.811 1229.74 119.392 1227.26 109.964 1227.26C100.69 1227.26 93.4259 1229.74 88.1709 1234.69C82.916 1239.63 80.2885 1245.97 80.2885 1253.7C80.2885 1261.43 82.916 1267.77 88.171 1272.72C93.4259 1277.67 100.69 1280.14 109.964 1280.14C119.392 1280.14 126.811 1277.67 132.22 1272.72C137.475 1267.77 140.103 1261.43 140.103 1253.7Z"/>
<path d="M45.281 1082.51C45.281 1071.07 47.9858 1060.71 53.3953 1051.43C58.6503 1042 66.2236 1034.58 76.1154 1029.17C85.8526 1023.6 97.2126 1020.82 110.196 1020.82C123.178 1020.82 134.616 1023.6 144.508 1029.17C154.245 1034.58 161.818 1042 167.228 1051.43C172.483 1060.71 175.11 1071.07 175.11 1082.51C175.11 1097.19 170.705 1108.87 161.895 1117.53L218 1117.53L218 1161.59L47.3675 1161.59L47.3675 1119.61L59.8868 1119.61C50.1496 1111.42 45.281 1099.05 45.281 1082.51ZM140.103 1091.78C140.103 1084.05 137.475 1077.71 132.22 1072.77C126.811 1067.82 119.469 1065.34 110.196 1065.34C100.922 1065.34 93.6578 1067.82 88.4028 1072.77C82.9932 1077.71 80.2885 1084.05 80.2885 1091.78C80.2885 1099.51 82.9932 1105.85 88.4028 1110.8C93.6578 1115.75 100.922 1118.22 110.196 1118.22C119.469 1118.22 126.811 1115.75 132.22 1110.8C137.475 1105.85 140.103 1099.51 140.103 1091.78Z"/>
<path d="M82.375 891.458L82.375 931.81L173.024 931.81L173.024 975.642L82.375 975.642L82.375 1016.23L47.3675 1016.23L47.3675 891.458L82.375 891.458Z"/>
<path d="M109.732 696.832C129.361 696.832 144.817 703.403 156.099 716.545C167.228 729.687 173.719 748.472 175.574 772.9L218 772.9L218 811.861L175.806 811.861C173.796 836.444 167.228 855.306 156.099 868.448C144.817 881.435 129.361 887.929 109.732 887.929C90.2575 887.929 75.1108 881.512 64.2917 868.68C53.4726 855.693 47.1357 836.753 45.281 811.861L0.999971 811.861L0.999969 772.9L45.281 772.9C47.2902 748.317 53.7044 729.532 64.5235 716.545C75.3426 703.403 90.412 696.832 109.732 696.832ZM109.732 845.952C119.933 845.952 127.738 843.324 133.147 838.067C138.402 832.656 141.803 823.921 143.348 811.861L77.5064 811.861C79.052 824.075 82.375 832.811 87.4754 838.067C92.5758 843.324 99.9947 845.952 109.732 845.952ZM143.348 772.9C141.803 760.686 138.402 751.95 133.147 746.694C127.738 741.282 119.933 738.577 109.732 738.577C99.9947 738.577 92.5758 741.282 87.4754 746.694C82.375 751.95 79.1293 760.686 77.7382 772.9L143.348 772.9Z"/>
<path d="M175.11 613.783C175.11 627.234 172.328 639.37 166.764 650.193C161.2 661.016 153.472 669.519 143.58 675.703C133.688 681.733 122.483 684.748 109.964 684.748C97.599 684.748 86.4708 681.733 76.5791 675.703C66.6873 669.519 59.0367 661.093 53.6271 650.425C48.063 639.602 45.281 627.388 45.281 613.783C45.281 600.177 48.063 587.963 53.6271 577.14C59.0367 566.318 66.6873 557.892 76.579 551.862C86.3162 545.832 97.4444 542.817 109.964 542.817C122.483 542.817 133.688 545.832 143.58 551.862C153.472 557.892 161.2 566.318 166.764 577.14C172.328 587.963 175.11 600.177 175.11 613.783ZM140.103 613.783C140.103 606.052 137.475 599.713 132.22 594.766C126.811 589.818 119.392 587.345 109.964 587.345C100.69 587.345 93.4259 589.818 88.1709 594.766C82.9159 599.713 80.2884 606.052 80.2884 613.783C80.2884 621.513 82.9159 627.852 88.1709 632.8C93.4259 637.747 100.69 640.221 109.964 640.221C119.392 640.221 126.811 637.747 132.22 632.8C137.475 627.852 140.103 621.513 140.103 613.783Z"/>
<path d="M47.3675 395.917L173.023 395.917L173.023 439.981L82.375 439.981L82.375 471.753L101.618 472.68C118.001 473.299 131.525 474.922 142.189 477.551C152.854 480.179 161.2 484.508 167.228 490.538C173.101 496.567 176.037 504.839 176.037 515.352C176.037 520.764 175.033 527.876 173.024 536.688L137.089 534.833C137.398 532.05 137.552 530.195 137.552 529.267C137.552 524.474 136.007 520.841 132.916 518.367C129.824 515.894 125.729 514.193 120.628 513.265C115.373 512.338 108.418 511.719 99.7628 511.41L47.3675 509.555L47.3675 395.917Z"/>
<path d="M47.3675 365.822L47.3675 321.99L113.209 321.99L47.3675 269.346L47.3675 228.761L173.023 228.761L173.023 272.824L106.95 272.824L173.023 325.005L173.023 365.822L47.3675 365.822Z"/>
<path d="M175.11 136.73C175.11 150.181 172.328 162.318 166.764 173.141C161.2 183.963 153.472 192.467 143.58 198.651C133.688 204.681 122.483 207.696 109.964 207.696C97.599 207.696 86.4708 204.681 76.579 198.651C66.6873 192.467 59.0366 184.041 53.6271 173.373C48.063 162.55 45.2809 150.336 45.2809 136.73C45.2809 123.125 48.063 110.911 53.6271 100.088C59.0366 89.2653 66.6873 80.8391 76.579 74.8094C86.3162 68.7797 97.4444 65.7649 109.964 65.7649C122.483 65.7649 133.688 68.7797 143.58 74.8094C153.472 80.8391 161.2 89.2653 166.764 100.088C172.328 110.911 175.11 123.125 175.11 136.73ZM140.103 136.73C140.103 129 137.475 122.661 132.22 117.713C126.811 112.766 119.392 110.292 109.964 110.292C100.69 110.292 93.4259 112.766 88.1709 117.713C82.9159 122.661 80.2884 129 80.2884 136.73C80.2884 144.461 82.9159 150.8 88.1709 155.747C93.4259 160.695 100.69 163.168 109.964 163.168C119.392 163.168 126.811 160.695 132.22 155.747C137.475 150.8 140.103 144.461 140.103 136.73Z"/>
<path d="M175.11 27.438C175.11 34.8592 172.637 41.1208 167.691 46.2229C162.745 51.3251 156.486 53.8761 148.912 53.8761C141.184 53.8761 134.925 51.4023 130.134 46.4548C125.342 41.3528 122.947 35.0138 122.947 27.438C122.947 19.7075 125.342 13.3685 130.134 8.42101C134.925 3.47363 141.184 0.999994 148.912 0.999994C156.486 0.999993 162.745 3.5509 167.691 8.65295C172.637 13.6005 175.11 19.8622 175.11 27.438Z"/>
</mask>
<path d="M47.3675 1346.13L173.024 1346.13L173.024 1389.96L82.375 1389.96L82.375 1432.17L173.024 1432.17L173.024 1476L47.3675 1476L47.3675 1346.13Z" stroke="url(#paint0_linear)" stroke-width="2" mask="url(#path-1-outside-1)"/>
<path d="M175.11 1253.7C175.11 1267.15 172.328 1279.29 166.764 1290.11C161.2 1300.94 153.472 1309.44 143.58 1315.62C133.688 1321.65 122.483 1324.67 109.964 1324.67C97.599 1324.67 86.4708 1321.65 76.5791 1315.62C66.6873 1309.44 59.0367 1301.01 53.6271 1290.35C48.063 1279.52 45.281 1267.31 45.281 1253.7C45.281 1240.1 48.063 1227.88 53.6271 1217.06C59.0367 1206.24 66.6873 1197.81 76.5791 1191.78C86.3163 1185.75 97.4445 1182.74 109.964 1182.74C122.483 1182.74 133.688 1185.75 143.58 1191.78C153.472 1197.81 161.2 1206.24 166.764 1217.06C172.328 1227.88 175.11 1240.1 175.11 1253.7ZM140.103 1253.7C140.103 1245.97 137.475 1239.63 132.22 1234.69C126.811 1229.74 119.392 1227.26 109.964 1227.26C100.69 1227.26 93.4259 1229.74 88.1709 1234.69C82.916 1239.63 80.2885 1245.97 80.2885 1253.7C80.2885 1261.43 82.916 1267.77 88.171 1272.72C93.4259 1277.67 100.69 1280.14 109.964 1280.14C119.392 1280.14 126.811 1277.67 132.22 1272.72C137.475 1267.77 140.103 1261.43 140.103 1253.7Z" stroke="url(#paint1_linear)" stroke-width="2" mask="url(#path-1-outside-1)"/>
<path d="M45.281 1082.51C45.281 1071.07 47.9858 1060.71 53.3953 1051.43C58.6503 1042 66.2236 1034.58 76.1154 1029.17C85.8526 1023.6 97.2126 1020.82 110.196 1020.82C123.178 1020.82 134.616 1023.6 144.508 1029.17C154.245 1034.58 161.818 1042 167.228 1051.43C172.483 1060.71 175.11 1071.07 175.11 1082.51C175.11 1097.19 170.705 1108.87 161.895 1117.53L218 1117.53L218 1161.59L47.3675 1161.59L47.3675 1119.61L59.8868 1119.61C50.1496 1111.42 45.281 1099.05 45.281 1082.51ZM140.103 1091.78C140.103 1084.05 137.475 1077.71 132.22 1072.77C126.811 1067.82 119.469 1065.34 110.196 1065.34C100.922 1065.34 93.6578 1067.82 88.4028 1072.77C82.9932 1077.71 80.2885 1084.05 80.2885 1091.78C80.2885 1099.51 82.9932 1105.85 88.4028 1110.8C93.6578 1115.75 100.922 1118.22 110.196 1118.22C119.469 1118.22 126.811 1115.75 132.22 1110.8C137.475 1105.85 140.103 1099.51 140.103 1091.78Z" stroke="url(#paint2_linear)" stroke-width="2" mask="url(#path-1-outside-1)"/>
<path d="M82.375 891.458L82.375 931.81L173.024 931.81L173.024 975.642L82.375 975.642L82.375 1016.23L47.3675 1016.23L47.3675 891.458L82.375 891.458Z" stroke="url(#paint3_linear)" stroke-width="2" mask="url(#path-1-outside-1)"/>
<path d="M109.732 696.832C129.361 696.832 144.817 703.403 156.099 716.545C167.228 729.687 173.719 748.472 175.574 772.9L218 772.9L218 811.861L175.806 811.861C173.796 836.444 167.228 855.306 156.099 868.448C144.817 881.435 129.361 887.929 109.732 887.929C90.2575 887.929 75.1108 881.512 64.2917 868.68C53.4726 855.693 47.1357 836.753 45.281 811.861L0.999971 811.861L0.999969 772.9L45.281 772.9C47.2902 748.317 53.7044 729.532 64.5235 716.545C75.3426 703.403 90.412 696.832 109.732 696.832ZM109.732 845.952C119.933 845.952 127.738 843.324 133.147 838.067C138.402 832.656 141.803 823.921 143.348 811.861L77.5064 811.861C79.052 824.075 82.375 832.811 87.4754 838.067C92.5758 843.324 99.9947 845.952 109.732 845.952ZM143.348 772.9C141.803 760.686 138.402 751.95 133.147 746.694C127.738 741.282 119.933 738.577 109.732 738.577C99.9947 738.577 92.5758 741.282 87.4754 746.694C82.375 751.95 79.1293 760.686 77.7382 772.9L143.348 772.9Z" stroke="url(#paint4_linear)" stroke-width="2" mask="url(#path-1-outside-1)"/>
<path d="M175.11 613.783C175.11 627.234 172.328 639.37 166.764 650.193C161.2 661.016 153.472 669.519 143.58 675.703C133.688 681.733 122.483 684.748 109.964 684.748C97.599 684.748 86.4708 681.733 76.5791 675.703C66.6873 669.519 59.0367 661.093 53.6271 650.425C48.063 639.602 45.281 627.388 45.281 613.783C45.281 600.177 48.063 587.963 53.6271 577.14C59.0367 566.318 66.6873 557.892 76.579 551.862C86.3162 545.832 97.4444 542.817 109.964 542.817C122.483 542.817 133.688 545.832 143.58 551.862C153.472 557.892 161.2 566.318 166.764 577.14C172.328 587.963 175.11 600.177 175.11 613.783ZM140.103 613.783C140.103 606.052 137.475 599.713 132.22 594.766C126.811 589.818 119.392 587.345 109.964 587.345C100.69 587.345 93.4259 589.818 88.1709 594.766C82.9159 599.713 80.2884 606.052 80.2884 613.783C80.2884 621.513 82.9159 627.852 88.1709 632.8C93.4259 637.747 100.69 640.221 109.964 640.221C119.392 640.221 126.811 637.747 132.22 632.8C137.475 627.852 140.103 621.513 140.103 613.783Z" stroke="url(#paint5_linear)" stroke-width="2" mask="url(#path-1-outside-1)"/>
<path d="M47.3675 395.917L173.023 395.917L173.023 439.981L82.375 439.981L82.375 471.753L101.618 472.68C118.001 473.299 131.525 474.922 142.189 477.551C152.854 480.179 161.2 484.508 167.228 490.538C173.101 496.567 176.037 504.839 176.037 515.352C176.037 520.764 175.033 527.876 173.024 536.688L137.089 534.833C137.398 532.05 137.552 530.195 137.552 529.267C137.552 524.474 136.007 520.841 132.916 518.367C129.824 515.894 125.729 514.193 120.628 513.265C115.373 512.338 108.418 511.719 99.7628 511.41L47.3675 509.555L47.3675 395.917Z" stroke="url(#paint6_linear)" stroke-width="2" mask="url(#path-1-outside-1)"/>
<path d="M47.3675 365.822L47.3675 321.99L113.209 321.99L47.3675 269.346L47.3675 228.761L173.023 228.761L173.023 272.824L106.95 272.824L173.023 325.005L173.023 365.822L47.3675 365.822Z" stroke="url(#paint7_linear)" stroke-width="2" mask="url(#path-1-outside-1)"/>
<path d="M175.11 136.73C175.11 150.181 172.328 162.318 166.764 173.141C161.2 183.963 153.472 192.467 143.58 198.651C133.688 204.681 122.483 207.696 109.964 207.696C97.599 207.696 86.4708 204.681 76.579 198.651C66.6873 192.467 59.0366 184.041 53.6271 173.373C48.063 162.55 45.2809 150.336 45.2809 136.73C45.2809 123.125 48.063 110.911 53.6271 100.088C59.0366 89.2653 66.6873 80.8391 76.579 74.8094C86.3162 68.7797 97.4444 65.7649 109.964 65.7649C122.483 65.7649 133.688 68.7797 143.58 74.8094C153.472 80.8391 161.2 89.2653 166.764 100.088C172.328 110.911 175.11 123.125 175.11 136.73ZM140.103 136.73C140.103 129 137.475 122.661 132.22 117.713C126.811 112.766 119.392 110.292 109.964 110.292C100.69 110.292 93.4259 112.766 88.1709 117.713C82.9159 122.661 80.2884 129 80.2884 136.73C80.2884 144.461 82.9159 150.8 88.1709 155.747C93.4259 160.695 100.69 163.168 109.964 163.168C119.392 163.168 126.811 160.695 132.22 155.747C137.475 150.8 140.103 144.461 140.103 136.73Z" stroke="url(#paint8_linear)" stroke-width="2" mask="url(#path-1-outside-1)"/>
<path d="M175.11 27.438C175.11 34.8592 172.637 41.1208 167.691 46.2229C162.745 51.3251 156.486 53.8761 148.912 53.8761C141.184 53.8761 134.925 51.4023 130.134 46.4548C125.342 41.3528 122.947 35.0138 122.947 27.438C122.947 19.7075 125.342 13.3685 130.134 8.42101C134.925 3.47363 141.184 0.999994 148.912 0.999994C156.486 0.999993 162.745 3.5509 167.691 8.65295C172.637 13.6005 175.11 19.8622 175.11 27.438Z" stroke="url(#paint9_linear)" stroke-width="2" mask="url(#path-1-outside-1)"/>
</g>
<defs>
<linearGradient id="paint0_linear" x1="94.0002" y1="65.5" x2="74.0003" y2="1476" gradientUnits="userSpaceOnUse">
<stop stop-color="#748CEE"/>
<stop offset="1" stop-color="#748CEE" stop-opacity="0"/>
</linearGradient>
<linearGradient id="paint1_linear" x1="94.0002" y1="65.5" x2="74.0003" y2="1476" gradientUnits="userSpaceOnUse">
<stop stop-color="#748CEE"/>
<stop offset="1" stop-color="#748CEE" stop-opacity="0"/>
</linearGradient>
<linearGradient id="paint2_linear" x1="94.0002" y1="65.5" x2="74.0003" y2="1476" gradientUnits="userSpaceOnUse">
<stop stop-color="#748CEE"/>
<stop offset="1" stop-color="#748CEE" stop-opacity="0"/>
</linearGradient>
<linearGradient id="paint3_linear" x1="94.0002" y1="65.5" x2="74.0003" y2="1476" gradientUnits="userSpaceOnUse">
<stop stop-color="#748CEE"/>
<stop offset="1" stop-color="#748CEE" stop-opacity="0"/>
</linearGradient>
<linearGradient id="paint4_linear" x1="94.0002" y1="65.5" x2="74.0003" y2="1476" gradientUnits="userSpaceOnUse">
<stop stop-color="#748CEE"/>
<stop offset="1" stop-color="#748CEE" stop-opacity="0"/>
</linearGradient>
<linearGradient id="paint5_linear" x1="94.0002" y1="65.5" x2="74.0003" y2="1476" gradientUnits="userSpaceOnUse">
<stop stop-color="#748CEE"/>
<stop offset="1" stop-color="#748CEE" stop-opacity="0"/>
</linearGradient>
<linearGradient id="paint6_linear" x1="94.0002" y1="65.5" x2="74.0003" y2="1476" gradientUnits="userSpaceOnUse">
<stop stop-color="#748CEE"/>
<stop offset="1" stop-color="#748CEE" stop-opacity="0"/>
</linearGradient>
<linearGradient id="paint7_linear" x1="94.0002" y1="65.5" x2="74.0003" y2="1476" gradientUnits="userSpaceOnUse">
<stop stop-color="#748CEE"/>
<stop offset="1" stop-color="#748CEE" stop-opacity="0"/>
</linearGradient>
<linearGradient id="paint8_linear" x1="94.0002" y1="65.5" x2="74.0003" y2="1476" gradientUnits="userSpaceOnUse">
<stop stop-color="#748CEE"/>
<stop offset="1" stop-color="#748CEE" stop-opacity="0"/>
</linearGradient>
<linearGradient id="paint9_linear" x1="94.0002" y1="65.5" x2="74.0003" y2="1476" gradientUnits="userSpaceOnUse">
<stop stop-color="#748CEE"/>
<stop offset="1" stop-color="#748CEE" stop-opacity="0"/>
</linearGradient>
</defs>
</svg>
