<svg width="60" height="456" viewBox="0 0 60 456" fill="none" xmlns="http://www.w3.org/2000/svg">
<g opacity="0.3">
<mask id="path-1-outside-1" maskUnits="userSpaceOnUse" x="-1.98887e-05" y="-2.57897e-06" width="60" height="456" fill="black">
<rect fill="white" x="-1.98887e-05" y="-2.57897e-06" width="60" height="456"/>
<path d="M58.7943 423.543C58.7943 429.506 57.5603 434.885 55.0922 439.683C52.6241 444.48 49.1962 448.249 44.8085 450.991C40.4208 453.664 35.4504 455 29.8972 455C24.4125 455 19.4764 453.664 15.0887 450.991C10.701 448.249 7.30733 444.514 4.9078 439.786C2.43972 434.988 1.20568 429.574 1.20568 423.543C1.20568 417.512 2.43972 412.098 4.9078 407.301C7.30733 402.503 10.7009 398.768 15.0887 396.095C19.4078 393.423 24.344 392.086 29.8972 392.086C35.4504 392.086 40.4208 393.423 44.8085 396.095C49.1962 398.768 52.6241 402.503 55.0922 407.301C57.5603 412.098 58.7943 417.512 58.7943 423.543ZM43.266 423.543C43.266 420.116 42.1005 417.307 39.7695 415.113C37.37 412.92 34.0792 411.824 29.8972 411.824C25.7837 411.824 22.5615 412.92 20.2305 415.113C17.8995 417.307 16.734 420.116 16.734 423.543C16.734 426.97 17.8995 429.78 20.2305 431.973C22.5615 434.166 25.7837 435.262 29.8972 435.262C34.0792 435.262 37.37 434.166 39.7695 431.973C42.1005 429.78 43.266 426.97 43.266 423.543Z"/>
<path d="M17.6596 334.964L17.6596 352.851L57.8688 352.851L57.8688 372.281L17.6596 372.281L17.6596 390.271L2.1312 390.271L2.1312 334.964L17.6596 334.964Z"/>
<path d="M28.9716 288.213C30 284.992 31.5768 282.525 33.7021 280.812C35.7589 279.03 38.227 278.139 41.1064 278.139C44.8085 278.139 48.0307 279.441 50.7731 282.045C53.4468 284.581 55.5036 288.076 56.9433 292.531C58.3144 296.917 59 301.852 59 307.334C59 316.792 57.3889 325.222 54.1667 332.623L41.0036 327.586C43.4716 321.692 44.7057 315.147 44.7057 307.951C44.7057 304.867 44.2601 302.434 43.3688 300.652C42.4775 298.802 41.2092 297.877 39.5638 297.877C38.0556 297.877 36.9586 298.425 36.2731 299.521C35.5875 300.618 35.2447 302.297 35.2447 304.559L35.2447 316.586L23.8298 316.586L23.8298 306.306C23.8298 301.715 22.4244 299.419 19.6135 299.419C16.6655 299.419 15.1915 302.468 15.1915 308.568C15.1915 313.845 16.4255 319.739 18.8936 326.25L6.03901 330.876C2.67966 322.789 0.999994 314.804 0.999994 306.923C0.999993 299.042 2.40544 292.531 5.21631 287.391C7.95863 282.251 11.8322 279.681 16.8369 279.681C19.3735 279.681 21.7045 280.435 23.8298 281.943C25.9551 283.45 27.669 285.541 28.9716 288.213Z"/>
<path d="M19.4078 236.471C19.4764 229.138 21.1217 223.621 24.344 219.921C27.5662 216.22 32.1596 214.369 38.1241 214.369C44.3629 214.369 49.2305 216.528 52.727 220.846C56.2234 225.095 57.9374 231.126 57.8688 238.939L57.8688 268.339L2.1312 268.339L2.1312 248.91L19.4078 248.91L19.4078 236.471ZM2.13119 209.64L2.13119 190.211L57.8688 190.211L57.8688 209.64L2.13119 209.64ZM44.5 240.892C44.5 235.957 42.2719 233.49 37.8156 233.49C35.6218 233.49 34.0106 234.107 32.9823 235.341C31.9539 236.574 31.4054 238.425 31.3369 240.892L31.3369 248.91L44.3972 248.91L44.5 240.892Z"/>
<path d="M28.6631 131.846C30.7884 125.472 35.1761 122.285 41.8262 122.285C46.831 122.285 50.7731 124.239 53.6525 128.145C56.4634 132.051 57.8688 137.808 57.8688 145.415L57.8688 176.77L2.13119 176.77L2.13119 146.855C2.13119 139.59 3.39952 133.97 5.93616 129.995C8.4728 125.952 12.0378 123.93 16.6312 123.93C19.305 123.93 21.6702 124.616 23.7269 125.986C25.7837 127.357 27.4291 129.31 28.6631 131.846ZM24.5496 159.294L24.5496 148.602C24.5496 144.079 22.87 141.817 19.5106 141.817C16.2884 141.817 14.6773 144.079 14.6773 148.602L14.6773 159.294L24.5496 159.294ZM45.2199 147.163C45.2199 142.434 43.5059 140.07 40.078 140.07C36.6501 140.07 34.9362 142.366 34.9362 146.957L34.9362 159.294L45.2199 159.294L45.2199 147.163Z"/>
<path d="M19.4078 80.3367C19.4764 73.0036 21.1217 67.4866 24.344 63.7858C27.5662 60.085 32.1596 58.2346 38.1241 58.2346C44.3629 58.2346 49.2305 60.3934 52.7269 64.711C56.2234 68.9601 57.9374 74.9911 57.8688 82.8039L57.8688 112.205L2.13119 112.205L2.13119 92.7755L19.4078 92.7755L19.4078 80.3367ZM2.13119 53.5058L2.13119 34.0765L57.8688 34.0765L57.8688 53.5058L2.13119 53.5058ZM44.5 84.7571C44.5 79.8227 42.2719 77.3555 37.8156 77.3555C35.6217 77.3555 34.0106 77.9723 32.9823 79.2059C31.9539 80.4395 31.4054 82.2899 31.3369 84.7571L31.3369 92.7755L44.3972 92.7755L44.5 84.7571Z"/>
<path d="M58.7943 12.7192C58.7943 16.0088 57.6974 18.7844 55.5035 21.046C53.3097 23.3076 50.5331 24.4384 47.1738 24.4384C43.7459 24.4384 40.9693 23.3419 38.844 21.1489C36.7187 18.8872 35.656 16.0774 35.656 12.7192C35.656 9.29254 36.7187 6.48269 38.844 4.28961C40.9693 2.09653 43.7459 0.999968 47.1738 0.999967C50.5331 0.999967 53.3097 2.13077 55.5035 4.39239C57.6974 6.58545 58.7943 9.36105 58.7943 12.7192Z"/>
</mask>
<path d="M58.7943 423.543C58.7943 429.506 57.5603 434.885 55.0922 439.683C52.6241 444.48 49.1962 448.249 44.8085 450.991C40.4208 453.664 35.4504 455 29.8972 455C24.4125 455 19.4764 453.664 15.0887 450.991C10.701 448.249 7.30733 444.514 4.9078 439.786C2.43972 434.988 1.20568 429.574 1.20568 423.543C1.20568 417.512 2.43972 412.098 4.9078 407.301C7.30733 402.503 10.7009 398.768 15.0887 396.095C19.4078 393.423 24.344 392.086 29.8972 392.086C35.4504 392.086 40.4208 393.423 44.8085 396.095C49.1962 398.768 52.6241 402.503 55.0922 407.301C57.5603 412.098 58.7943 417.512 58.7943 423.543ZM43.266 423.543C43.266 420.116 42.1005 417.307 39.7695 415.113C37.37 412.92 34.0792 411.824 29.8972 411.824C25.7837 411.824 22.5615 412.92 20.2305 415.113C17.8995 417.307 16.734 420.116 16.734 423.543C16.734 426.97 17.8995 429.78 20.2305 431.973C22.5615 434.166 25.7837 435.262 29.8972 435.262C34.0792 435.262 37.37 434.166 39.7695 431.973C42.1005 429.78 43.266 426.97 43.266 423.543Z" stroke="#748CEE" stroke-width="2" mask="url(#path-1-outside-1)"/>
<path d="M17.6596 334.964L17.6596 352.851L57.8688 352.851L57.8688 372.281L17.6596 372.281L17.6596 390.271L2.1312 390.271L2.1312 334.964L17.6596 334.964Z" stroke="#748CEE" stroke-width="2" mask="url(#path-1-outside-1)"/>
<path d="M28.9716 288.213C30 284.992 31.5768 282.525 33.7021 280.812C35.7589 279.03 38.227 278.139 41.1064 278.139C44.8085 278.139 48.0307 279.441 50.7731 282.045C53.4468 284.581 55.5036 288.076 56.9433 292.531C58.3144 296.917 59 301.852 59 307.334C59 316.792 57.3889 325.222 54.1667 332.623L41.0036 327.586C43.4716 321.692 44.7057 315.147 44.7057 307.951C44.7057 304.867 44.2601 302.434 43.3688 300.652C42.4775 298.802 41.2092 297.877 39.5638 297.877C38.0556 297.877 36.9586 298.425 36.2731 299.521C35.5875 300.618 35.2447 302.297 35.2447 304.559L35.2447 316.586L23.8298 316.586L23.8298 306.306C23.8298 301.715 22.4244 299.419 19.6135 299.419C16.6655 299.419 15.1915 302.468 15.1915 308.568C15.1915 313.845 16.4255 319.739 18.8936 326.25L6.03901 330.876C2.67966 322.789 0.999994 314.804 0.999994 306.923C0.999993 299.042 2.40544 292.531 5.21631 287.391C7.95863 282.251 11.8322 279.681 16.8369 279.681C19.3735 279.681 21.7045 280.435 23.8298 281.943C25.9551 283.45 27.669 285.541 28.9716 288.213Z" stroke="#748CEE" stroke-width="2" mask="url(#path-1-outside-1)"/>
<path d="M19.4078 236.471C19.4764 229.138 21.1217 223.621 24.344 219.921C27.5662 216.22 32.1596 214.369 38.1241 214.369C44.3629 214.369 49.2305 216.528 52.727 220.846C56.2234 225.095 57.9374 231.126 57.8688 238.939L57.8688 268.339L2.1312 268.339L2.1312 248.91L19.4078 248.91L19.4078 236.471ZM2.13119 209.64L2.13119 190.211L57.8688 190.211L57.8688 209.64L2.13119 209.64ZM44.5 240.892C44.5 235.957 42.2719 233.49 37.8156 233.49C35.6218 233.49 34.0106 234.107 32.9823 235.341C31.9539 236.574 31.4054 238.425 31.3369 240.892L31.3369 248.91L44.3972 248.91L44.5 240.892Z" stroke="#748CEE" stroke-width="2" mask="url(#path-1-outside-1)"/>
<path d="M28.6631 131.846C30.7884 125.472 35.1761 122.285 41.8262 122.285C46.831 122.285 50.7731 124.239 53.6525 128.145C56.4634 132.051 57.8688 137.808 57.8688 145.415L57.8688 176.77L2.13119 176.77L2.13119 146.855C2.13119 139.59 3.39952 133.97 5.93616 129.995C8.4728 125.952 12.0378 123.93 16.6312 123.93C19.305 123.93 21.6702 124.616 23.7269 125.986C25.7837 127.357 27.4291 129.31 28.6631 131.846ZM24.5496 159.294L24.5496 148.602C24.5496 144.079 22.87 141.817 19.5106 141.817C16.2884 141.817 14.6773 144.079 14.6773 148.602L14.6773 159.294L24.5496 159.294ZM45.2199 147.163C45.2199 142.434 43.5059 140.07 40.078 140.07C36.6501 140.07 34.9362 142.366 34.9362 146.957L34.9362 159.294L45.2199 159.294L45.2199 147.163Z" stroke="#748CEE" stroke-width="2" mask="url(#path-1-outside-1)"/>
<path d="M19.4078 80.3367C19.4764 73.0036 21.1217 67.4866 24.344 63.7858C27.5662 60.085 32.1596 58.2346 38.1241 58.2346C44.3629 58.2346 49.2305 60.3934 52.7269 64.711C56.2234 68.9601 57.9374 74.9911 57.8688 82.8039L57.8688 112.205L2.13119 112.205L2.13119 92.7755L19.4078 92.7755L19.4078 80.3367ZM2.13119 53.5058L2.13119 34.0765L57.8688 34.0765L57.8688 53.5058L2.13119 53.5058ZM44.5 84.7571C44.5 79.8227 42.2719 77.3555 37.8156 77.3555C35.6217 77.3555 34.0106 77.9723 32.9823 79.2059C31.9539 80.4395 31.4054 82.2899 31.3369 84.7571L31.3369 92.7755L44.3972 92.7755L44.5 84.7571Z" stroke="#748CEE" stroke-width="2" mask="url(#path-1-outside-1)"/>
<path d="M58.7943 12.7192C58.7943 16.0088 57.6974 18.7844 55.5035 21.046C53.3097 23.3076 50.5331 24.4384 47.1738 24.4384C43.7459 24.4384 40.9693 23.3419 38.844 21.1489C36.7187 18.8872 35.656 16.0774 35.656 12.7192C35.656 9.29254 36.7187 6.48269 38.844 4.28961C40.9693 2.09653 43.7459 0.999968 47.1738 0.999967C50.5331 0.999967 53.3097 2.13077 55.5035 4.39239C57.6974 6.58545 58.7943 9.36105 58.7943 12.7192Z" stroke="#748CEE" stroke-width="2" mask="url(#path-1-outside-1)"/>
</g>
</svg>
