<svg width="26" height="26" viewBox="0 0 26 26" fill="none" xmlns="http://www.w3.org/2000/svg">
<rect width="26" height="26" fill="#E5E5E5"/>
<g clip-path="url(#clip0)">
<rect width="1920" height="7128" transform="translate(-490 -4407)" fill="white"/>
<path d="M2.11111 17.3313L2.84216 17.1638L2.11111 17.3313ZM2.11111 9.47097L2.84216 9.63853L2.11111 9.47097ZM23.8891 9.47098L23.158 9.63853L23.8891 9.47098ZM23.8891 17.3313L23.158 17.1638L23.8891 17.3313ZM16.8403 24.5452L17.0154 25.2745L16.8403 24.5452ZM9.15989 24.5452L9.33496 23.8159L9.15989 24.5452ZM9.15989 2.25706L9.33496 2.98634L9.15989 2.25706ZM16.8403 2.25706L17.0154 1.52778L16.8403 2.25706ZM8.51019 1C8.51019 0.585786 8.1744 0.25 7.76019 0.25C7.34597 0.25 7.01019 0.585786 7.01019 1H8.51019ZM7.01019 4.35166C7.01019 4.76587 7.34597 5.10166 7.76019 5.10166C8.1744 5.10166 8.51019 4.76587 8.51019 4.35166H7.01019ZM18.99 1C18.99 0.585786 18.6542 0.25 18.24 0.25C17.8258 0.25 17.49 0.585786 17.49 1H18.99ZM17.49 4.35166C17.49 4.76587 17.8258 5.10166 18.24 5.10166C18.6542 5.10166 18.99 4.76587 18.99 4.35166H17.49ZM2.84216 17.1638C2.27495 14.689 2.27495 12.1133 2.84216 9.63853L1.38007 9.30342C0.762308 11.9987 0.762308 14.8036 1.38007 17.4989L2.84216 17.1638ZM23.158 9.63853C23.7252 12.1133 23.7252 14.689 23.158 17.1638L24.6201 17.4989C25.2379 14.8036 25.2379 11.9987 24.6201 9.30342L23.158 9.63853ZM16.6652 23.816C14.2544 24.3947 11.7457 24.3947 9.33496 23.8159L8.98482 25.2745C11.6257 25.9085 14.3744 25.9085 17.0154 25.2745L16.6652 23.816ZM9.33496 2.98634C11.7457 2.4076 14.2544 2.4076 16.6652 2.98634L17.0154 1.52778C14.3744 0.893786 11.6257 0.893786 8.98481 1.52778L9.33496 2.98634ZM9.33496 23.8159C6.12173 23.0446 3.60063 20.473 2.84216 17.1638L1.38007 17.4989C2.2624 21.3485 5.20305 24.3666 8.98482 25.2745L9.33496 23.8159ZM17.0154 25.2745C20.7971 24.3666 23.7378 21.3485 24.6201 17.4989L23.158 17.1638C22.3995 20.473 19.8784 23.0446 16.6652 23.816L17.0154 25.2745ZM16.6652 2.98634C19.8784 3.75772 22.3995 6.3293 23.158 9.63853L24.6201 9.30342C23.7378 5.45378 20.7971 2.43564 17.0154 1.52778L16.6652 2.98634ZM8.98481 1.52778C5.20305 2.43564 2.2624 5.45377 1.38007 9.30342L2.84216 9.63853C3.60063 6.3293 6.12173 3.75772 9.33496 2.98634L8.98481 1.52778ZM2.5203 8.78849H23.4799V7.28849H2.5203V8.78849ZM7.01019 1V4.35166H8.51019V1H7.01019ZM17.49 1V4.35166H18.99V1H17.49Z" fill="#748CEE"/>
<path d="M14.9227 15.5652C15.4627 15.1812 15.7987 14.6052 15.7987 13.8252C15.7987 12.2052 14.5507 11.3652 13.0747 11.3652C11.5987 11.3652 10.3387 12.2052 10.3387 13.8252C10.3387 14.6052 10.6867 15.1812 11.2147 15.5652C10.4827 16.0092 10.0627 16.7412 10.0627 17.5932C10.0627 19.1412 11.2027 20.1012 13.0747 20.1012C14.9347 20.1012 16.0867 19.1412 16.0867 17.5932C16.0867 16.7412 15.6667 16.0092 14.9227 15.5652ZM13.0747 12.9252C13.6987 12.9252 14.1547 13.2852 14.1547 13.9092C14.1547 14.5212 13.6987 14.9052 13.0747 14.9052C12.4507 14.9052 11.9947 14.5212 11.9947 13.9092C11.9947 13.2852 12.4507 12.9252 13.0747 12.9252ZM13.0747 18.5412C12.2827 18.5412 11.7067 18.1332 11.7067 17.3772C11.7067 16.6332 12.2827 16.2252 13.0747 16.2252C13.8667 16.2252 14.4427 16.6332 14.4427 17.3772C14.4427 18.1332 13.8667 18.5412 13.0747 18.5412Z" fill="#748CEE"/>
</g>
<defs>
<clipPath id="clip0">
<rect width="1920" height="7128" fill="white" transform="translate(-490 -4407)"/>
</clipPath>
</defs>
</svg>
