<svg width="73" height="51" viewBox="0 0 73 51" fill="none" xmlns="http://www.w3.org/2000/svg">
<path opacity="1" d="M61.32 22.1531C61.7877 20.935 62.05 19.6031 62.05 18.2143C62.05 12.1808 57.1453 7.28571 51.1 7.28571C48.853 7.28571 46.7542 7.96875 45.0205 9.12991C41.8609 3.66562 35.9639 0 29.2 0C19.1169 0 10.95 8.15089 10.95 18.2143C10.95 18.5217 10.9614 18.829 10.9728 19.1364C4.58531 21.379 0 27.458 0 34.6071C0 43.6574 7.35703 51 16.425 51H58.4C66.4642 51 73 44.477 73 36.4286C73 29.3819 67.9812 23.4964 61.32 22.1531Z" fill="#e3e8fc"/>
</svg>
