<svg width="28" height="24" viewBox="0 0 28 24" fill="none" xmlns="http://www.w3.org/2000/svg">
<path fill-rule="evenodd" clip-rule="evenodd" d="M9.74628 0.4404C12.5482 -0.1468 15.452 -0.1468 18.2539 0.440401L18.84 0.563235C21.258 1.06997 23.3598 2.3499 24.8408 4.12215C25.0826 4.41144 25.0013 4.82855 24.682 5.04002L15.8324 10.9001C14.7322 11.6287 13.2679 11.6287 12.1677 10.9001L3.3182 5.04003C2.99885 4.82856 2.91758 4.41145 3.15933 4.12216C4.6404 2.3499 6.74219 1.06997 9.16015 0.563236L9.74628 0.4404ZM2.43323 6.91379C2.06266 6.6684 1.54609 6.80908 1.4058 7.21589C1.32745 7.44309 1.25735 7.67398 1.19585 7.90825C0.490382 10.5953 0.490382 13.4047 1.19585 16.0918C2.16196 19.7715 5.24699 22.6167 9.16015 23.4368L9.74628 23.5596C12.5482 24.1468 15.452 24.1468 18.2539 23.5596L18.84 23.4368C22.7532 22.6167 25.8382 19.7715 26.8043 16.0917C27.5098 13.4047 27.5098 10.5953 26.8043 7.90826C26.7428 7.67398 26.6727 7.44308 26.5944 7.21587C26.4541 6.80907 25.9375 6.66839 25.5669 6.91378L17.054 12.551C15.2204 13.7652 12.7798 13.7652 10.9461 12.551L2.43323 6.91379Z" fill="#E3E8FC"/>
</svg>
