<svg width="40" height="40" viewBox="0 0 40 40" fill="none" xmlns="http://www.w3.org/2000/svg">
<path d="M20 0C31.0833 0 40 8.91667 40 20C40 31.0833 31.0833 40 20 40C8.91667 40 0 31.0833 0 20C0 9 8.91667 0 20 0Z" fill="#E3E8FC"/>
<path d="M21.3335 33.3337V21.167H25.4168L26.0002 16.417H21.3335V13.417C21.3335 12.0837 21.7502 11.0837 23.6668 11.0837H26.1668V6.83366C25.7502 6.75033 24.2502 6.66699 22.5002 6.66699C18.9168 6.66699 16.4168 8.91699 16.4168 12.917V16.417H12.3335V21.167H16.4168V33.3337H21.3335Z" fill="#748CEE"/>
</svg>
