<svg width="40" height="40" viewBox="0 0 40 40" fill="none" xmlns="http://www.w3.org/2000/svg">
<path d="M20 0C31.0833 0 40 8.91667 40 20C40 31.0833 31.0833 40 20 40C8.91667 40 0 31.0833 0 20C0 8.91667 8.91667 0 20 0Z" fill="#E3E8FC"/>
<path d="M15.8333 20C15.8333 17.6667 17.6667 15.8333 20 15.8333C22.3333 15.8333 24.1667 17.6667 24.1667 20C24.1667 22.3333 22.3333 24.1667 20 24.1667C17.6667 24.1667 15.8333 22.3333 15.8333 20ZM13.5833 20C13.5833 23.5833 16.4167 26.4167 20 26.4167C23.5833 26.4167 26.4167 23.5833 26.4167 20C26.4167 16.4167 23.5833 13.5833 20 13.5833C16.4167 13.5833 13.5833 16.4167 13.5833 20ZM25.1667 13.3333C25.1667 13.6667 25.25 13.9167 25.4167 14.1667C25.5833 14.4167 25.8333 14.5833 26.0833 14.75C26.3333 14.9167 26.6667 14.9167 26.9167 14.8333C27.1667 14.75 27.5 14.6667 27.6667 14.4167C27.9167 14.1667 28 13.9167 28.0833 13.6667C28.1667 13.4167 28.0833 13.0833 28 12.8333C27.9166 12.5833 27.6667 12.3333 27.4167 12.1667C27.1667 12 26.9167 11.9167 26.5834 11.9167C26.1667 11.9167 25.8333 12.0833 25.5 12.3333C25.3333 12.5833 25.1667 12.9167 25.1667 13.3333ZM14.9167 30.1667C13.6667 30.0833 13 29.9167 12.5833 29.75C12 29.5 11.5834 29.25 11.1667 28.8333C10.75 28.4167 10.4167 28 10.25 27.4167C10.0833 27 9.83332 26.3333 9.83332 25.0833C9.74999 23.75 9.75001 23.3333 9.75001 20C9.75001 16.6667 9.74999 16.25 9.83332 14.9167C9.91666 13.6667 10.0833 13 10.25 12.5833C10.5 12 10.75 11.5833 11.1667 11.1667C11.5834 10.75 12 10.4167 12.5833 10.25C13 10.0833 13.6667 9.91667 14.9167 9.83334C16.25 9.75 16.6667 9.75 20 9.75C23.3333 9.75 23.75 9.75 25.0833 9.83334C26.3333 9.91667 27 10.0833 27.4167 10.25C28 10.5 28.4166 10.75 28.8333 11.1667C29.25 11.5833 29.5 12 29.75 12.5833C29.9167 13 30.1667 13.6667 30.1667 14.9167C30.25 16.25 30.25 16.6667 30.25 20C30.25 23.3333 30.25 23.75 30.1667 25.0833C30.0833 26.3333 29.9167 27 29.75 27.4167C29.5 28 29.25 28.4167 28.8333 28.8333C28.4166 29.25 28 29.5 27.4167 29.75C27 29.9167 26.3333 30.0833 25.0833 30.1667C23.75 30.25 23.3333 30.25 20 30.25C16.6667 30.25 16.25 30.25 14.9167 30.1667ZM14.8333 7.58333C13.5 7.66667 12.5833 7.83334 11.8333 8.16667C11 8.5 10.3333 8.91667 9.58333 9.58333C8.91667 10.25 8.49999 11 8.16666 11.8333C7.83332 12.6667 7.66665 13.5 7.58331 14.8333C7.49998 16.1667 7.5 16.5833 7.5 20C7.5 23.4167 7.49998 23.8333 7.58331 25.1667C7.66665 26.5 7.83332 27.4167 8.16666 28.1667C8.49999 29 8.91667 29.6667 9.58333 30.4167C10.25 31.0833 11 31.5 11.8333 31.8333C12.6667 32.1667 13.5 32.3333 14.8333 32.4167C16.1667 32.5 16.5833 32.5 20 32.5C23.4167 32.5 23.8333 32.5 25.1667 32.4167C26.5 32.3333 27.4167 32.1667 28.1667 31.8333C29 31.5 29.6667 31.0833 30.4167 30.4167C31.0833 29.75 31.5 29 31.8333 28.1667C32.1667 27.3333 32.3334 26.5 32.4167 25.1667C32.5 23.8333 32.5 23.4167 32.5 20C32.5 16.5833 32.5 16.1667 32.4167 14.8333C32.3334 13.5 32.1667 12.5833 31.8333 11.8333C31.5 11 31.0833 10.3333 30.4167 9.58333C29.75 8.91667 29 8.5 28.1667 8.16667C27.3333 7.83334 26.5 7.66667 25.1667 7.58333C23.8333 7.5 23.4167 7.5 20 7.5C16.5833 7.5 16.1667 7.5 14.8333 7.58333Z" fill="#748CEE"/>
</svg>
