<svg width="50" height="52" viewBox="0 0 50 52" fill="none" xmlns="http://www.w3.org/2000/svg">
<path d="M25.8379 45.9737L24.441 45.4273L25.8379 45.9737ZM3.0775 31.7007L1.61562 32.0367L3.0775 31.7007ZM3.06849 18.6038L1.60661 18.2678H1.60661L3.06849 18.6038ZM46.9936 19.1931L48.4555 18.8571L46.9936 19.1931ZM46.9936 31.0722L45.5318 30.7362L46.9936 31.0722ZM17.8424 49.5288L18.4321 48.1496L18.4321 48.1496L17.8424 49.5288ZM18.8387 2.72377L19.1879 4.18256V4.18256L18.8387 2.72377ZM31.088 2.72377L30.7388 4.18256L31.088 2.72377ZM17.5273 49.3941L16.9376 50.7734L16.9376 50.7734L17.5273 49.3941ZM32.1043 2.96704L32.4535 1.50826L32.1043 2.96704ZM46.7567 18.1623L45.2948 18.4984L46.7567 18.1623ZM18.2439 2.86615L17.8947 1.40736V1.40736L18.2439 2.86615ZM16.19 16.6545C15.3616 16.6545 14.69 17.3261 14.69 18.1545C14.69 18.9829 15.3616 19.6545 16.19 19.6545V16.6545ZM32.2744 19.6545C33.1029 19.6545 33.7744 18.9829 33.7744 18.1545C33.7744 17.3261 33.1029 16.6545 32.2744 16.6545V19.6545ZM16.19 25.8709C15.3616 25.8709 14.69 26.5425 14.69 27.3709C14.69 28.1994 15.3616 28.8709 16.19 28.8709V25.8709ZM26.4256 28.8709C27.254 28.8709 27.9256 28.1994 27.9256 27.3709C27.9256 26.5425 27.254 25.8709 26.4256 25.8709V28.8709ZM18.5931 4.32494L19.1879 4.18256L18.4895 1.26498L17.8947 1.40736L18.5931 4.32494ZM30.7388 4.18256L31.7551 4.42583L32.4535 1.50826L31.4372 1.26498L30.7388 4.18256ZM18.4321 48.1496L18.117 48.0149L16.9376 50.7734L17.2527 50.9081L18.4321 48.1496ZM45.2948 18.4984L45.5318 19.5291L48.4555 18.8571L48.2186 17.8263L45.2948 18.4984ZM30.7922 42.9714H27.9619V45.9714H30.7922V42.9714ZM27.9619 42.9714C26.3728 42.9714 25.0035 43.9893 24.441 45.4273L27.2349 46.5201C27.3789 46.1519 27.692 45.9714 27.9619 45.9714V42.9714ZM4.53938 31.3647C3.60343 27.2929 3.59536 23.0076 4.53037 18.9398L1.60661 18.2678C0.56901 22.7819 0.578961 27.5267 1.61562 32.0367L4.53938 31.3647ZM45.5318 19.5291C46.3782 23.2116 46.3782 27.0537 45.5318 30.7362L48.4555 31.4082C49.4036 27.2835 49.4036 22.9818 48.4555 18.8571L45.5318 19.5291ZM17.2527 50.9081C21.2188 52.6037 25.6668 50.5292 27.2349 46.5201L24.441 45.4273C23.4418 47.9819 20.7226 49.1288 18.4321 48.1496L17.2527 50.9081ZM19.1879 4.18256C22.9898 3.27248 26.9369 3.27248 30.7388 4.18256L31.4372 1.26498C27.1762 0.245006 22.7505 0.245005 18.4895 1.26498L19.1879 4.18256ZM18.117 48.0149C11.3536 45.1233 6.27018 38.8945 4.53938 31.3647L1.61562 32.0367C3.54872 40.4467 9.24298 47.4837 16.9376 50.7734L18.117 48.0149ZM45.5318 30.7362C43.8707 37.9627 37.7443 42.9714 30.7922 42.9714V45.9714C39.2361 45.9714 46.5028 39.9035 48.4555 31.4082L45.5318 30.7362ZM31.7551 4.42583C38.4045 6.01753 43.6736 11.445 45.2948 18.4984L48.2186 17.8263C46.3567 9.72606 40.2728 3.38 32.4535 1.50826L31.7551 4.42583ZM17.8947 1.40736C9.81715 3.34092 3.53068 9.89708 1.60661 18.2678L4.53037 18.9398C6.21379 11.6161 11.6855 5.97845 18.5931 4.32494L17.8947 1.40736ZM16.19 19.6545H32.2744V16.6545H16.19V19.6545ZM16.19 28.8709H26.4256V25.8709H16.19V28.8709Z" fill="#748CEE"/>
</svg>
