<svg width="44" height="52" viewBox="0 0 44 52" fill="none" xmlns="http://www.w3.org/2000/svg">
<path d="M6.07413 17.0202L7.52192 17.4125L6.07413 17.0202ZM17.089 5.4726L16.6265 4.0457L17.089 5.4726ZM5.95458 17.4614L4.50679 17.0692H4.50679L5.95458 17.4614ZM5.43883 28.3132L6.91731 28.06L5.43883 28.3132ZM5.49884 28.6637L4.02036 28.9168L4.02036 28.9168L5.49884 28.6637ZM6.76691 40.5524L7.06634 39.0826L6.76691 40.5524ZM7.74716 40.7521L8.04659 39.2823H8.04659L7.74716 40.7521ZM36.2528 40.7521L35.9534 39.2823L36.2528 40.7521ZM37.2331 40.5524L37.5325 42.0222L37.2331 40.5524ZM38.5127 28.5965L39.9911 28.8496V28.8496L38.5127 28.5965ZM38.5763 28.2247L37.0978 27.9716V27.9716L38.5763 28.2247ZM38.1112 17.5366L36.6603 17.9173V17.9173L38.1112 17.5366ZM37.9448 16.9023L39.3957 16.5216V16.5216L37.9448 16.9023ZM27.2455 5.489L27.7159 4.06467L27.2455 5.489ZM38.9413 29.4687L38.2088 30.7777L38.9413 29.4687ZM5.11459 29.4378L4.39625 28.121L5.11459 29.4378ZM23.5 2C23.5 1.17157 22.8284 0.5 22 0.5C21.1716 0.5 20.5 1.17157 20.5 2H23.5ZM20.5 4.6793C20.5 5.50773 21.1716 6.1793 22 6.1793C22.8284 6.1793 23.5 5.50773 23.5 4.6793H20.5ZM14.0243 41.7424L14.1919 40.2518L12.3972 40.05L12.5282 41.8512L14.0243 41.7424ZM29.9757 41.7424L31.4718 41.8512L31.6028 40.05L29.8081 40.2518L29.9757 41.7424ZM29.7337 43.2726L31.1903 43.6307L29.7337 43.2726ZM29.5151 44.1615L28.0585 43.8033L29.5151 44.1615ZM23.877 49.7786L24.226 51.2374L23.877 49.7786ZM20.123 49.7786L19.774 51.2374L20.123 49.7786ZM14.4849 44.1615L13.0282 44.5197H13.0282L14.4849 44.1615ZM14.2663 43.2726L15.7229 42.9144L14.2663 43.2726ZM7.52192 17.4125C8.86658 12.4498 12.6744 8.48046 17.5515 6.89951L16.6265 4.0457C10.7924 5.93685 6.23807 10.6795 4.62633 16.628L7.52192 17.4125ZM7.40238 17.8537L7.52192 17.4125L4.62633 16.628L4.50679 17.0692L7.40238 17.8537ZM6.91731 28.06C6.3357 24.6631 6.50129 21.1794 7.40238 17.8537L4.50679 17.0692C3.49168 20.8156 3.30519 24.7398 3.96034 28.5663L6.91731 28.06ZM6.97733 28.4106L6.91731 28.06L3.96034 28.5663L4.02036 28.9168L6.97733 28.4106ZM3.5 34.6943C3.5 32.9924 4.44256 31.5131 5.83292 30.7546L4.39625 28.121C2.07635 29.3865 0.5 31.8562 0.5 34.6943H3.5ZM7.06634 39.0826C4.99623 38.6609 3.5 36.8294 3.5 34.6943H0.5C0.5 38.2459 2.99068 41.3139 6.46748 42.0222L7.06634 39.0826ZM8.04659 39.2823L7.06634 39.0826L6.46748 42.0222L7.44773 42.2219L8.04659 39.2823ZM35.9534 39.2823C26.7448 41.1583 17.2552 41.1583 8.04659 39.2823L7.44773 42.2219C17.0515 44.1784 26.9485 44.1784 36.5523 42.2219L35.9534 39.2823ZM36.9337 39.0826L35.9534 39.2823L36.5523 42.2219L37.5325 42.0222L36.9337 39.0826ZM40.5 34.6943C40.5 36.8294 39.0038 38.6609 36.9337 39.0826L37.5325 42.0222C41.0093 41.3139 43.5 38.2459 43.5 34.6943H40.5ZM38.2088 30.7777C39.5764 31.543 40.5 33.0095 40.5 34.6943H43.5C43.5 31.8848 41.9552 29.4363 39.6738 28.1597L38.2088 30.7777ZM37.0978 27.9716L37.0342 28.3434L39.9911 28.8496L40.0548 28.4778L37.0978 27.9716ZM36.6603 17.9173C37.5212 21.1985 37.6704 24.6273 37.0978 27.9716L40.0548 28.4778C40.6996 24.712 40.5316 20.851 39.5621 17.156L36.6603 17.9173ZM36.4939 17.2829L36.6603 17.9173L39.5621 17.156L39.3957 16.5216L36.4939 17.2829ZM26.7751 6.91333C31.5509 8.4906 35.2107 12.392 36.4939 17.2829L39.3957 16.5216C37.8558 10.6524 33.4614 5.96219 27.7159 4.06467L26.7751 6.91333ZM17.5515 6.89951C20.5432 5.92976 23.7956 5.92931 26.7751 6.91333L27.7159 4.06467C24.1241 2.87841 20.218 2.88149 16.6265 4.0457L17.5515 6.89951ZM39.6738 28.1597C39.8832 28.2769 40.0451 28.5343 39.9911 28.8496L37.0342 28.3434C36.8602 29.3594 37.3812 30.3146 38.2088 30.7777L39.6738 28.1597ZM4.02036 28.9168C3.95966 28.5623 4.14218 28.2596 4.39625 28.121L5.83292 30.7546C6.64133 30.3136 7.14497 29.3897 6.97733 28.4106L4.02036 28.9168ZM20.5 2V4.6793H23.5V2H20.5ZM13.8567 43.233C19.2686 43.8414 24.7314 43.8414 30.1433 43.233L29.8081 40.2518C24.619 40.8352 19.381 40.8352 14.1919 40.2518L13.8567 43.233ZM31.1903 43.6307C31.3341 43.0461 31.4282 42.4508 31.4718 41.8512L28.4797 41.6335C28.4483 42.0652 28.3806 42.4937 28.2771 42.9144L31.1903 43.6307ZM30.9717 44.5197L31.1903 43.6307L28.2771 42.9144L28.0585 43.8033L30.9717 44.5197ZM24.226 51.2374C27.5527 50.4416 30.1536 47.8471 30.9717 44.5197L28.0585 43.8033C27.5071 46.046 25.7566 47.7866 23.528 48.3197L24.226 51.2374ZM19.774 51.2374C21.2375 51.5875 22.7625 51.5875 24.226 51.2374L23.528 48.3197C22.5234 48.5601 21.4766 48.5601 20.472 48.3197L19.774 51.2374ZM13.0282 44.5197C13.8464 47.8471 16.4473 50.4416 19.774 51.2374L20.472 48.3197C18.2434 47.7866 16.4929 46.046 15.9415 43.8033L13.0282 44.5197ZM12.8097 43.6307L13.0282 44.5197L15.9415 43.8033L15.7229 42.9144L12.8097 43.6307ZM12.5282 41.8512C12.5718 42.4508 12.6659 43.0461 12.8097 43.6307L15.7229 42.9144C15.6194 42.4937 15.5517 42.0652 15.5203 41.6335L12.5282 41.8512Z" fill="#748CEE"/>
</svg>
