<svg width="50" height="52" viewBox="0 0 50 52" fill="none" xmlns="http://www.w3.org/2000/svg">
<path d="M3.22198 34.6626L4.68407 34.3275L3.22198 34.6626ZM3.22198 18.9419L4.68407 19.2771L3.22198 18.9419ZM46.7779 18.942L45.3158 19.2771L46.7779 18.942ZM46.7779 34.6626L45.3158 34.3275L46.7779 34.6626ZM32.6803 49.0905L33.0305 50.549L32.6803 49.0905ZM17.3195 49.0905L17.6697 47.6319L17.3195 49.0905ZM17.3195 4.51412L17.6697 5.97268L17.3195 4.51412ZM32.6803 4.51412L33.0305 3.05556L32.6803 4.51412ZM16.0201 2C16.0201 1.17157 15.3486 0.5 14.5201 0.5C13.6917 0.5 13.0201 1.17157 13.0201 2H16.0201ZM13.0201 8.70332C13.0201 9.53175 13.6917 10.2033 14.5201 10.2033C15.3486 10.2033 16.0201 9.53175 16.0201 8.70332H13.0201ZM36.9797 2C36.9797 1.17157 36.3081 0.5 35.4797 0.5C34.6513 0.5 33.9797 1.17157 33.9797 2H36.9797ZM33.9797 8.70332C33.9797 9.53175 34.6513 10.2033 35.4797 10.2033C36.3081 10.2033 36.9797 9.53175 36.9797 8.70332H33.9797ZM4.68407 34.3275C3.54965 29.378 3.54965 24.2266 4.68407 19.2771L1.75989 18.6068C0.524372 23.9974 0.524372 29.6071 1.75989 34.9977L4.68407 34.3275ZM45.3158 19.2771C46.4502 24.2266 46.4502 29.378 45.3158 34.3275L48.24 34.9977C49.4755 29.6071 49.4755 23.9974 48.24 18.6068L45.3158 19.2771ZM32.3302 47.6319C27.5086 48.7894 22.4912 48.7894 17.6697 47.6319L16.9694 50.549C22.2512 51.817 27.7486 51.817 33.0305 50.549L32.3302 47.6319ZM17.6697 5.97268C22.4912 4.8152 27.5086 4.8152 32.3302 5.97268L33.0305 3.05556C27.7486 1.78757 22.2512 1.78757 16.9694 3.05556L17.6697 5.97268ZM17.6697 47.6319C11.2432 46.0891 6.20101 40.946 4.68407 34.3275L1.75989 34.9977C3.52456 42.697 9.40586 48.7333 16.9694 50.549L17.6697 47.6319ZM33.0305 50.549C40.594 48.7333 46.4753 42.697 48.24 34.9977L45.3158 34.3275C43.7988 40.946 38.7566 46.0891 32.3302 47.6319L33.0305 50.549ZM32.3302 5.97268C38.7566 7.51544 43.7988 12.6586 45.3158 19.2771L48.24 18.6068C46.4753 10.9076 40.594 4.87128 33.0305 3.05556L32.3302 5.97268ZM16.9694 3.05556C9.40586 4.87129 3.52456 10.9075 1.75989 18.6068L4.68407 19.2771C6.20101 12.6586 11.2432 7.51544 17.6697 5.97268L16.9694 3.05556ZM13.0201 2V8.70332H16.0201V2H13.0201ZM33.9797 2V8.70332H36.9797V2H33.9797Z" fill="#748CEE"/>
<path d="M13.9762 21.8135C13.3472 21.2744 12.4002 21.3472 11.8611 21.9762C11.322 22.6052 11.3948 23.5522 12.0238 24.0913L13.9762 21.8135ZM15.6667 25.2381L14.6905 26.377C15.2522 26.8585 16.0811 26.8585 16.6429 26.377L15.6667 25.2381ZM21.9762 21.8056C22.6052 21.2664 22.678 20.3195 22.1389 19.6905C21.5998 19.0615 20.6528 18.9887 20.0238 19.5278L21.9762 21.8056ZM13.9762 33.2421C13.3472 32.703 12.4002 32.7758 11.8611 33.4048C11.322 34.0338 11.3948 34.9807 12.0238 35.5199L13.9762 33.2421ZM15.6667 36.6667L14.6905 37.8056C15.2522 38.2871 16.0811 38.2871 16.6429 37.8056L15.6667 36.6667ZM21.9762 33.2341C22.6052 32.695 22.678 31.7481 22.1389 31.1191C21.5998 30.4901 20.6528 30.4172 20.0238 30.9564L21.9762 33.2341ZM27.6667 22.5953C26.8382 22.5953 26.1667 23.2668 26.1667 24.0953C26.1667 24.9237 26.8382 25.5953 27.6667 25.5953V22.5953ZM37 25.5953C37.8284 25.5953 38.5 24.9237 38.5 24.0953C38.5 23.2668 37.8284 22.5953 37 22.5953V25.5953ZM27.6667 34.0238C26.8382 34.0238 26.1667 34.6954 26.1667 35.5238C26.1667 36.3523 26.8382 37.0238 27.6667 37.0238V34.0238ZM37 37.0238C37.8284 37.0238 38.5 36.3523 38.5 35.5238C38.5 34.6954 37.8284 34.0238 37 34.0238V37.0238ZM12.0238 24.0913L14.6905 26.377L16.6429 24.0992L13.9762 21.8135L12.0238 24.0913ZM16.6429 26.377L21.9762 21.8056L20.0238 19.5278L14.6905 24.0992L16.6429 26.377ZM12.0238 35.5199L14.6905 37.8056L16.6429 35.5278L13.9762 33.2421L12.0238 35.5199ZM16.6429 37.8056L21.9762 33.2341L20.0238 30.9564L14.6905 35.5278L16.6429 37.8056ZM27.6667 25.5953H37V22.5953H27.6667V25.5953ZM27.6667 37.0238H37V34.0238H27.6667V37.0238Z" fill="#748CEE"/>
</svg>
