<svg width="40" height="40" viewBox="0 0 40 40" fill="none" xmlns="http://www.w3.org/2000/svg">
<path d="M20 0C31.0833 0 40 8.91667 40 20C40 31.0833 31.0833 40 20 40C8.91667 40 0 31.0833 0 20C0 9 8.91667 0 20 0Z" fill="#E3E8FC"/>
<path fill-rule="evenodd" clip-rule="evenodd" d="M32.75 13.7498C32.9167 13.1665 32.75 12.6665 31.8333 12.6665H28.9167C28.1667 12.6665 27.8333 13.0832 27.6667 13.4998C27.6667 13.4998 26.1667 17.0832 24.0833 19.4998C23.4167 20.1665 23.0833 20.4165 22.75 20.4165C22.5833 20.4165 22.3333 20.1665 22.3333 19.5832V13.8332C22.3333 13.0832 22.0833 12.7498 21.5 12.7498H16.9167C16.4167 12.7498 16.1667 13.0832 16.1667 13.4165C16.1667 14.0832 17.25 14.2498 17.3333 16.2498V20.5832C17.3333 21.4998 17.1667 21.6665 16.8333 21.6665C15.8333 21.6665 13.4167 17.9998 12 13.9165C11.75 13.0832 11.4167 12.7498 10.6667 12.7498H7.74998C6.91665 12.7498 6.75 13.1665 6.75 13.5832C6.75 14.3332 7.75 18.1665 11.3333 23.2498C13.75 26.7498 17.1667 28.5832 20.25 28.5832C22.0833 28.5832 22.3333 28.1665 22.3333 27.4165V24.8332C22.3333 23.9998 22.5 23.8332 23.0833 23.8332C23.5 23.8332 24.25 24.0832 26 25.7498C28 27.7498 28.3333 28.5832 29.4167 28.5832H32.3333C33.1667 28.5832 33.5833 28.1665 33.3333 27.3332C33.0833 26.4998 32.1667 25.3332 30.8333 23.9165C30.1667 23.0832 29.1667 22.2498 28.8333 21.8332C28.4167 21.2498 28.5 20.9998 28.8333 20.4998C28.8333 20.4998 32.3333 15.4998 32.75 13.7498Z" fill="#748CEE"/>
</svg>
