<svg width="132" height="28" viewBox="0 0 132 28" fill="none" xmlns="http://www.w3.org/2000/svg">
<path d="M9.44008 9.176C12.5121 9.176 14.8588 9.86933 16.4801 11.256C18.1014 12.6213 18.9121 14.7333 18.9121 17.592V27H12.1921V24.696C11.3601 26.4453 9.70675 27.32 7.23208 27.32C5.84542 27.32 4.66142 27.0853 3.68008 26.616C2.72008 26.1253 1.98408 25.4747 1.47208 24.664C0.981417 23.832 0.736084 22.904 0.736084 21.88C0.736084 20.152 1.39742 18.84 2.72008 17.944C4.04275 17.048 6.04808 16.6 8.73608 16.6H11.6481C11.4134 15.2347 10.3148 14.552 8.35208 14.552C7.56275 14.552 6.76275 14.68 5.95208 14.936C5.14142 15.1707 4.44808 15.5013 3.87208 15.928L1.56808 11.16C2.57075 10.5413 3.77608 10.0613 5.18408 9.72C6.61342 9.35733 8.03208 9.176 9.44008 9.176ZM9.40808 22.968C9.92008 22.968 10.3788 22.8293 10.7841 22.552C11.1894 22.2747 11.4881 21.8587 11.6801 21.304V20.088H9.88808C8.41608 20.088 7.68008 20.5787 7.68008 21.56C7.68008 21.9653 7.82942 22.3067 8.12808 22.584C8.44808 22.84 8.87475 22.968 9.40808 22.968Z" fill="#748CEE"/>
<path d="M21.3976 9.496H28.6296V27H21.3976V9.496ZM25.0136 8.088C23.7123 8.088 22.6563 7.74666 21.8456 7.064C21.0563 6.36 20.6616 5.47466 20.6616 4.408C20.6616 3.34133 21.0563 2.46666 21.8456 1.784C22.6563 1.08 23.7123 0.727997 25.0136 0.727997C26.3363 0.727997 27.3923 1.05866 28.1816 1.72C28.9709 2.38133 29.3656 3.23466 29.3656 4.28C29.3656 5.38933 28.9709 6.30666 28.1816 7.032C27.3923 7.736 26.3363 8.088 25.0136 8.088Z" fill="#748CEE"/>
<path d="M38.0751 11.384C39.3551 9.912 41.2431 9.176 43.7391 9.176V15.576C43.1631 15.4907 42.6297 15.448 42.1391 15.448C39.6644 15.448 38.4271 16.7067 38.4271 19.224V27H31.1951V9.496H38.0751V11.384Z" fill="#748CEE"/>
<path d="M60.9506 27.32C59.4573 27.32 57.9853 27.16 56.5346 26.84C55.0839 26.52 53.9106 26.104 53.0146 25.592L54.9986 20.824C55.8092 21.3147 56.7692 21.6987 57.8786 21.976C58.9879 22.2533 60.0653 22.392 61.1106 22.392C61.9426 22.392 62.5186 22.328 62.8386 22.2C63.1799 22.0507 63.3506 21.8373 63.3506 21.56C63.3506 21.2827 63.1372 21.0907 62.7106 20.984C62.3052 20.8773 61.6333 20.7707 60.6946 20.664C59.2653 20.4933 58.0492 20.28 57.0466 20.024C56.0439 19.7467 55.1586 19.224 54.3906 18.456C53.6439 17.688 53.2706 16.5893 53.2706 15.16C53.2706 14.0293 53.6119 13.016 54.2946 12.12C54.9772 11.224 55.9906 10.5093 57.3346 9.976C58.6999 9.44266 60.3319 9.176 62.2306 9.176C63.5532 9.176 64.8439 9.304 66.1026 9.56C67.3826 9.79466 68.4706 10.1467 69.3666 10.616L67.3826 15.384C65.8466 14.5307 64.1613 14.104 62.3266 14.104C60.7479 14.104 59.9586 14.3813 59.9586 14.936C59.9586 15.2133 60.1719 15.416 60.5986 15.544C61.0252 15.6507 61.6973 15.7573 62.6146 15.864C64.0439 16.0347 65.2493 16.2587 66.2306 16.536C67.2332 16.8133 68.1079 17.336 68.8546 18.104C69.6226 18.872 70.0066 19.9707 70.0066 21.4C70.0066 22.488 69.6653 23.48 68.9826 24.376C68.2999 25.272 67.2759 25.9867 65.9106 26.52C64.5452 27.0533 62.8919 27.32 60.9506 27.32Z" fill="#748CEE"/>
<path d="M71.5563 9.496H78.7883V27H71.5563V9.496ZM75.1723 8.088C73.871 8.088 72.815 7.74666 72.0043 7.064C71.215 6.36 70.8203 5.47466 70.8203 4.408C70.8203 3.34133 71.215 2.46666 72.0043 1.784C72.815 1.08 73.871 0.727997 75.1723 0.727997C76.495 0.727997 77.551 1.05866 78.3403 1.72C79.1297 2.38133 79.5243 3.23466 79.5243 4.28C79.5243 5.38933 79.1297 6.30666 78.3403 7.032C77.551 7.736 76.495 8.088 75.1723 8.088Z" fill="#748CEE"/>
<path d="M94.2498 26.392C93.1618 27.0107 91.6792 27.32 89.8018 27.32C87.3485 27.32 85.4605 26.7333 84.1378 25.56C82.8152 24.3653 82.1538 22.584 82.1538 20.216V15.736H79.7538V10.456H82.1538V5.56H89.3858V10.456H92.9698V15.736H89.3858V20.152C89.3858 20.6853 89.5245 21.1013 89.8018 21.4C90.0792 21.6987 90.4418 21.848 90.8898 21.848C91.5085 21.848 92.0525 21.688 92.5218 21.368L94.2498 26.392Z" fill="#748CEE"/>
<path d="M113.588 18.232C113.588 18.3387 113.556 18.904 113.492 19.928H101.332C101.588 20.5893 102.014 21.1013 102.612 21.464C103.209 21.8053 103.956 21.976 104.852 21.976C105.62 21.976 106.26 21.88 106.772 21.688C107.305 21.496 107.881 21.1653 108.5 20.696L112.276 24.504C110.569 26.3813 108.02 27.32 104.628 27.32C102.516 27.32 100.66 26.936 99.0598 26.168C97.4598 25.3787 96.2225 24.2907 95.3478 22.904C94.4732 21.5173 94.0358 19.96 94.0358 18.232C94.0358 16.4827 94.4625 14.9253 95.3158 13.56C96.1905 12.1733 97.3745 11.096 98.8678 10.328C100.382 9.56 102.078 9.176 103.956 9.176C105.727 9.176 107.337 9.528 108.788 10.232C110.26 10.936 111.423 11.9707 112.276 13.336C113.15 14.7013 113.588 16.3333 113.588 18.232ZM104.02 14.104C103.273 14.104 102.655 14.3067 102.164 14.712C101.673 15.1173 101.353 15.6933 101.204 16.44H106.836C106.687 15.7147 106.367 15.1493 105.876 14.744C105.385 14.3173 104.766 14.104 104.02 14.104Z" fill="#748CEE"/>
<path d="M122.078 27.32C120.585 27.32 119.113 27.16 117.662 26.84C116.211 26.52 115.038 26.104 114.142 25.592L116.126 20.824C116.937 21.3147 117.897 21.6987 119.006 21.976C120.115 22.2533 121.193 22.392 122.238 22.392C123.07 22.392 123.646 22.328 123.966 22.2C124.307 22.0507 124.478 21.8373 124.478 21.56C124.478 21.2827 124.265 21.0907 123.838 20.984C123.433 20.8773 122.761 20.7707 121.822 20.664C120.393 20.4933 119.177 20.28 118.174 20.024C117.171 19.7467 116.286 19.224 115.518 18.456C114.771 17.688 114.398 16.5893 114.398 15.16C114.398 14.0293 114.739 13.016 115.422 12.12C116.105 11.224 117.118 10.5093 118.462 9.976C119.827 9.44266 121.459 9.176 123.358 9.176C124.681 9.176 125.971 9.304 127.23 9.56C128.51 9.79466 129.598 10.1467 130.494 10.616L128.51 15.384C126.974 14.5307 125.289 14.104 123.454 14.104C121.875 14.104 121.086 14.3813 121.086 14.936C121.086 15.2133 121.299 15.416 121.726 15.544C122.153 15.6507 122.825 15.7573 123.742 15.864C125.171 16.0347 126.377 16.2587 127.358 16.536C128.361 16.8133 129.235 17.336 129.982 18.104C130.75 18.872 131.134 19.9707 131.134 21.4C131.134 22.488 130.793 23.48 130.11 24.376C129.427 25.272 128.403 25.9867 127.038 26.52C125.673 27.0533 124.019 27.32 122.078 27.32Z" fill="#748CEE"/>
</svg>
