<svg width="42" height="30" viewBox="0 0 42 30" fill="none" xmlns="http://www.w3.org/2000/svg">
<path opacity="0.2" d="M35.28 13.0312C35.5491 12.3147 35.7 11.5312 35.7 10.7143C35.7 7.16518 32.8781 4.28571 29.4 4.28571C28.1072 4.28571 26.8997 4.6875 25.9022 5.37054C24.0844 2.15625 20.6916 0 16.8 0C10.9987 0 6.3 4.79464 6.3 10.7143C6.3 10.8951 6.30656 11.0759 6.31312 11.2567C2.63812 12.5759 0 16.1518 0 20.3571C0 25.6808 4.23281 30 9.45 30H33.6C38.2397 30 42 26.1629 42 21.4286C42 17.2835 39.1125 13.8214 35.28 13.0312Z" fill="#748CEE"/>
</svg>
